<svg width="24" height="24" viewBox="0 0 24 24" fill="none" xmlns="http://www.w3.org/2000/svg">
<path fill-rule="evenodd" clip-rule="evenodd" d="M1.3934 19.7782C0.612355 20.5592 0.612355 21.8255 1.3934 22.6066C2.17445 23.3876 3.44078 23.3876 4.22183 22.6066L11.9999 14.8285L19.7988 22.6274C20.5798 23.4085 21.8461 23.4085 22.6272 22.6274C23.4082 21.8464 23.4082 20.58 22.6272 19.799L14.8283 12.0001L22.6066 4.22182C23.3877 3.44077 23.3877 2.17444 22.6066 1.39339C21.8256 0.61234 20.5592 0.61234 19.7782 1.39339L11.9999 9.17169L4.2424 1.41421C3.46135 0.63316 2.19502 0.63316 1.41398 1.41421C0.632927 2.19526 0.632927 3.46159 1.41398 4.24264L9.17145 12.0001L1.3934 19.7782Z" fill="#ECF0F1"/>
</svg>
