<svg width="24" height="24" viewBox="0 0 24 24" fill="none" xmlns="http://www.w3.org/2000/svg">
<path fill-rule="evenodd" clip-rule="evenodd" d="M1.3934 19.7782C0.612355 20.5592 0.612355 21.8256 1.3934 22.6066C2.17445 23.3877 3.44078 23.3877 4.22183 22.6066L11.9999 14.8286L19.7988 22.6274C20.5798 23.4085 21.8461 23.4085 22.6272 22.6274C23.4082 21.8464 23.4082 20.58 22.6272 19.799L14.8283 12.0001L22.6066 4.22183C23.3877 3.44078 23.3877 2.17445 22.6066 1.3934C21.8256 0.612355 20.5592 0.612355 19.7782 1.3934L11.9999 9.1717L4.2424 1.41422C3.46135 0.633175 2.19502 0.633175 1.41398 1.41422C0.632927 2.19527 0.632927 3.4616 1.41398 4.24265L9.17145 12.0001L1.3934 19.7782Z" fill="#ECF0F1"/>
</svg>
